<mxfile host="Electron" modified="2023-12-17T16:35:20.041Z" agent="Mozilla/5.0 (Windows NT 10.0; Win64; x64) AppleWebKit/537.36 (KHTML, like Gecko) draw.io/22.1.2 Chrome/114.0.5735.289 Electron/25.9.4 Safari/537.36" etag="hg8WSEKXMLAO1fBOoBme" version="22.1.2" type="device">
  <diagram name="Page-1" id="xU5MmeD3-hOXE_pJsN4M">
    <mxGraphModel dx="1232" dy="1188" grid="1" gridSize="10" guides="1" tooltips="1" connect="1" arrows="1" fold="1" page="1" pageScale="1" pageWidth="850" pageHeight="1100" math="0" shadow="0">
      <root>
        <mxCell id="0" />
        <mxCell id="1" parent="0" />
        <mxCell id="-qRy3Vi_CwyMC0IqLVa5-1" value="" style="endArrow=none;html=1;rounded=0;" parent="1" edge="1">
          <mxGeometry width="50" height="50" relative="1" as="geometry">
            <mxPoint x="205" y="520" as="sourcePoint" />
            <mxPoint x="645" y="520" as="targetPoint" />
          </mxGeometry>
        </mxCell>
        <mxCell id="-qRy3Vi_CwyMC0IqLVa5-2" value="" style="ellipse;whiteSpace=wrap;html=1;" parent="1" vertex="1">
          <mxGeometry x="415" y="790" width="20" height="10" as="geometry" />
        </mxCell>
        <mxCell id="-qRy3Vi_CwyMC0IqLVa5-5" value="" style="endArrow=none;dashed=1;html=1;rounded=0;exitX=0.5;exitY=0;exitDx=0;exitDy=0;dashPattern=1 1;strokeWidth=3;" parent="1" source="-qRy3Vi_CwyMC0IqLVa5-2" edge="1">
          <mxGeometry width="50" height="50" relative="1" as="geometry">
            <mxPoint x="425" y="780" as="sourcePoint" />
            <mxPoint x="210" y="520" as="targetPoint" />
          </mxGeometry>
        </mxCell>
        <mxCell id="-qRy3Vi_CwyMC0IqLVa5-9" value="Point Cloud Area" style="rounded=1;whiteSpace=wrap;html=1;" parent="1" vertex="1">
          <mxGeometry x="373" y="533" width="105" height="35" as="geometry" />
        </mxCell>
        <mxCell id="-qRy3Vi_CwyMC0IqLVa5-11" value="Camera Lens" style="rounded=1;whiteSpace=wrap;html=1;" parent="1" vertex="1">
          <mxGeometry x="375" y="820" width="100" height="50" as="geometry" />
        </mxCell>
        <mxCell id="-qRy3Vi_CwyMC0IqLVa5-12" value="Floor" style="rounded=1;whiteSpace=wrap;html=1;" parent="1" vertex="1">
          <mxGeometry x="375" y="450" width="100" height="50" as="geometry" />
        </mxCell>
        <mxCell id="-qRy3Vi_CwyMC0IqLVa5-17" value="" style="endArrow=none;dashed=1;html=1;rounded=0;exitX=0.5;exitY=0;exitDx=0;exitDy=0;dashPattern=1 1;strokeWidth=3;" parent="1" source="-qRy3Vi_CwyMC0IqLVa5-2" edge="1">
          <mxGeometry width="50" height="50" relative="1" as="geometry">
            <mxPoint x="400" y="630" as="sourcePoint" />
            <mxPoint x="640" y="520" as="targetPoint" />
          </mxGeometry>
        </mxCell>
        <mxCell id="-qRy3Vi_CwyMC0IqLVa5-18" value="" style="endArrow=none;html=1;strokeWidth=2;rounded=0;entryX=0.5;entryY=0;entryDx=0;entryDy=0;" parent="1" target="-qRy3Vi_CwyMC0IqLVa5-2" edge="1">
          <mxGeometry width="50" height="50" relative="1" as="geometry">
            <mxPoint x="425" y="640" as="sourcePoint" />
            <mxPoint x="430" y="790" as="targetPoint" />
          </mxGeometry>
        </mxCell>
        <mxCell id="-qRy3Vi_CwyMC0IqLVa5-20" value="" style="endArrow=none;html=1;curved=1;" parent="1" edge="1">
          <mxGeometry width="50" height="50" relative="1" as="geometry">
            <mxPoint x="520" y="670" as="sourcePoint" />
            <mxPoint x="425" y="640" as="targetPoint" />
            <Array as="points">
              <mxPoint x="480" y="640" />
            </Array>
          </mxGeometry>
        </mxCell>
        <mxCell id="-qRy3Vi_CwyMC0IqLVa5-23" value="" style="curved=1;endArrow=classic;html=1;rounded=0;strokeColor=none;" parent="1" edge="1">
          <mxGeometry width="50" height="50" relative="1" as="geometry">
            <mxPoint x="445" y="750" as="sourcePoint" />
            <mxPoint x="459.80522479265505" y="687.4315107424982" as="targetPoint" />
            <Array as="points">
              <mxPoint x="495" y="750" />
            </Array>
          </mxGeometry>
        </mxCell>
        <mxCell id="-qRy3Vi_CwyMC0IqLVa5-24" value="" style="endArrow=none;html=1;curved=1;" parent="1" edge="1">
          <mxGeometry width="50" height="50" relative="1" as="geometry">
            <mxPoint x="430" y="590" as="sourcePoint" />
            <mxPoint x="290" y="630" as="targetPoint" />
            <Array as="points">
              <mxPoint x="350" y="590" />
            </Array>
          </mxGeometry>
        </mxCell>
        <mxCell id="-qRy3Vi_CwyMC0IqLVa5-25" value="&lt;font style=&quot;&quot;&gt;&lt;font style=&quot;font-size: 9px;&quot;&gt;&lt;b&gt;Angle&lt;/b&gt;&lt;/font&gt;&lt;br&gt;&lt;/font&gt;" style="ellipse;whiteSpace=wrap;html=1;" parent="1" vertex="1">
          <mxGeometry x="425" y="710" width="30" height="30" as="geometry" />
        </mxCell>
        <mxCell id="S3eH2uH1KZSlxIfc7FKv-1" value="Camera&#39;s FOV" style="rounded=1;whiteSpace=wrap;html=1;" parent="1" vertex="1">
          <mxGeometry x="378" y="600" width="100" height="30" as="geometry" />
        </mxCell>
        <mxCell id="S3eH2uH1KZSlxIfc7FKv-3" value="" style="endArrow=none;dashed=1;html=1;dashPattern=1 3;strokeWidth=2;rounded=0;" parent="1" edge="1" source="dpykbnY8ZJq9bnagpYXV-1">
          <mxGeometry width="50" height="50" relative="1" as="geometry">
            <mxPoint x="430" y="790" as="sourcePoint" />
            <mxPoint x="530" y="560" as="targetPoint" />
          </mxGeometry>
        </mxCell>
        <mxCell id="S3eH2uH1KZSlxIfc7FKv-4" value="" style="endArrow=none;html=1;curved=1;" parent="1" edge="1">
          <mxGeometry width="50" height="50" relative="1" as="geometry">
            <mxPoint x="465" y="710" as="sourcePoint" />
            <mxPoint x="425" y="700" as="targetPoint" />
            <Array as="points">
              <mxPoint x="445" y="700" />
            </Array>
          </mxGeometry>
        </mxCell>
        <mxCell id="S3eH2uH1KZSlxIfc7FKv-6" value="" style="endArrow=none;html=1;rounded=0;" parent="1" edge="1">
          <mxGeometry width="50" height="50" relative="1" as="geometry">
            <mxPoint x="530" y="560" as="sourcePoint" />
            <mxPoint x="550" y="470" as="targetPoint" />
          </mxGeometry>
        </mxCell>
        <mxCell id="S3eH2uH1KZSlxIfc7FKv-8" value="Point Being Measured" style="rounded=0;whiteSpace=wrap;html=1;" parent="1" vertex="1">
          <mxGeometry x="530" y="420" width="95" height="40" as="geometry" />
        </mxCell>
        <mxCell id="S3eH2uH1KZSlxIfc7FKv-10" value="" style="endArrow=none;html=1;rounded=0;" parent="1" edge="1">
          <mxGeometry width="50" height="50" relative="1" as="geometry">
            <mxPoint x="530" y="560" as="sourcePoint" />
            <mxPoint x="600" y="470" as="targetPoint" />
          </mxGeometry>
        </mxCell>
        <mxCell id="dpykbnY8ZJq9bnagpYXV-2" value="" style="endArrow=none;dashed=1;html=1;dashPattern=1 3;strokeWidth=2;rounded=0;" edge="1" parent="1" target="dpykbnY8ZJq9bnagpYXV-1">
          <mxGeometry width="50" height="50" relative="1" as="geometry">
            <mxPoint x="430" y="790" as="sourcePoint" />
            <mxPoint x="530" y="560" as="targetPoint" />
          </mxGeometry>
        </mxCell>
        <mxCell id="dpykbnY8ZJq9bnagpYXV-1" value="&lt;font style=&quot;&quot;&gt;&lt;font style=&quot;font-size: 9px;&quot;&gt;&lt;b&gt;Max Angle&lt;/b&gt;&lt;/font&gt;&lt;br&gt;&lt;/font&gt;" style="ellipse;whiteSpace=wrap;html=1;" vertex="1" parent="1">
          <mxGeometry x="455" y="660" width="35" height="40" as="geometry" />
        </mxCell>
        <mxCell id="dpykbnY8ZJq9bnagpYXV-3" value="" style="endArrow=none;html=1;curved=1;" edge="1" parent="1">
          <mxGeometry width="50" height="50" relative="1" as="geometry">
            <mxPoint x="550" y="630" as="sourcePoint" />
            <mxPoint x="425" y="590" as="targetPoint" />
            <Array as="points">
              <mxPoint x="480" y="590" />
            </Array>
          </mxGeometry>
        </mxCell>
      </root>
    </mxGraphModel>
  </diagram>
</mxfile>
